{
	"asset":{
		"generator":"Khronos glTF Blender I/O v4.0.44",
		"version":"2.0"
	},
	"scene":0,
	"scenes":[
		{
			"name":"Scene",
			"nodes":[
				0
			]
		}
	],
	"nodes":[
		{
			"mesh":0,
			"name":"Gun_SMG_Ammo"
		}
	],
	"materials":[
		{
			"doubleSided":true,
			"name":"MI_Guns_Batch1",
			"normalTexture":{
				"index":0
			},
			"pbrMetallicRoughness":{
				"baseColorTexture":{
					"index":1
				},
				"metallicRoughnessTexture":{
					"index":2
				}
			}
		}
	],
	"meshes":[
		{
			"name":"Cube.002",
			"primitives":[
				{
					"attributes":{
						"POSITION":0,
						"NORMAL":1,
						"TEXCOORD_0":2
					},
					"indices":3,
					"material":0
				}
			]
		}
	],
	"textures":[
		{
			"sampler":0,
			"source":0
		},
		{
			"sampler":0,
			"source":1
		},
		{
			"sampler":0,
			"source":2
		}
	],
	"images":[
		{
			"mimeType":"image/png",
			"name":"T_Guns_Batch1_Normal",
			"uri":"T_Guns_Batch1_Normal.png"
		},
		{
			"mimeType":"image/png",
			"name":"T_Guns_Batch1_BaseColor",
			"uri":"T_Guns_Batch1_BaseColor.png"
		},
		{
			"mimeType":"image/png",
			"name":"T_Guns_Batch1_ORM",
			"uri":"T_Guns_Batch1_ORM.png"
		}
	],
	"accessors":[
		{
			"bufferView":0,
			"componentType":5126,
			"count":493,
			"max":[
				0.03159265220165253,
				0.11575818806886673,
				0.019539320841431618
			],
			"min":[
				-0.032578982412815094,
				-0.16140441596508026,
				-0.01953931525349617
			],
			"type":"VEC3"
		},
		{
			"bufferView":1,
			"componentType":5126,
			"count":493,
			"type":"VEC3"
		},
		{
			"bufferView":2,
			"componentType":5126,
			"count":493,
			"type":"VEC2"
		},
		{
			"bufferView":3,
			"componentType":5123,
			"count":1446,
			"type":"SCALAR"
		}
	],
	"bufferViews":[
		{
			"buffer":0,
			"byteLength":5916,
			"byteOffset":0,
			"target":34962
		},
		{
			"buffer":0,
			"byteLength":5916,
			"byteOffset":5916,
			"target":34962
		},
		{
			"buffer":0,
			"byteLength":3944,
			"byteOffset":11832,
			"target":34962
		},
		{
			"buffer":0,
			"byteLength":2892,
			"byteOffset":15776,
			"target":34963
		}
	],
	"samplers":[
		{
			"magFilter":9729,
			"minFilter":9987
		}
	],
	"buffers":[
		{
			"byteLength":18668,
			"uri":"Gun_SMG_Ammo.bin"
		}
	]
}
