{
	"asset":{
		"generator":"Khronos glTF Blender I/O v4.0.44",
		"version":"2.0"
	},
	"scene":0,
	"scenes":[
		{
			"name":"Scene",
			"nodes":[
				0
			]
		}
	],
	"nodes":[
		{
			"mesh":0,
			"name":"Gun_Pistol"
		}
	],
	"materials":[
		{
			"doubleSided":true,
			"name":"MI_Guns_Batch1",
			"normalTexture":{
				"index":0
			},
			"pbrMetallicRoughness":{
				"baseColorTexture":{
					"index":1
				},
				"metallicRoughnessTexture":{
					"index":2
				}
			}
		}
	],
	"meshes":[
		{
			"name":"Cube.007",
			"primitives":[
				{
					"attributes":{
						"POSITION":0,
						"NORMAL":1,
						"TEXCOORD_0":2
					},
					"indices":3,
					"material":0
				}
			]
		}
	],
	"textures":[
		{
			"sampler":0,
			"source":0
		},
		{
			"sampler":0,
			"source":1
		},
		{
			"sampler":0,
			"source":2
		}
	],
	"images":[
		{
			"mimeType":"image/png",
			"name":"T_Guns_Batch1_Normal",
			"uri":"T_Guns_Batch1_Normal.png"
		},
		{
			"mimeType":"image/png",
			"name":"T_Guns_Batch1_BaseColor",
			"uri":"T_Guns_Batch1_BaseColor.png"
		},
		{
			"mimeType":"image/png",
			"name":"T_Guns_Batch1_ORM",
			"uri":"T_Guns_Batch1_ORM.png"
		}
	],
	"accessors":[
		{
			"bufferView":0,
			"componentType":5126,
			"count":3225,
			"max":[
				0.07080600410699844,
				0.16923321783542633,
				0.03423168510198593
			],
			"min":[
				-0.3716539740562439,
				-0.08311158418655396,
				-0.03423168510198593
			],
			"type":"VEC3"
		},
		{
			"bufferView":1,
			"componentType":5126,
			"count":3225,
			"type":"VEC3"
		},
		{
			"bufferView":2,
			"componentType":5126,
			"count":3225,
			"type":"VEC2"
		},
		{
			"bufferView":3,
			"componentType":5123,
			"count":9966,
			"type":"SCALAR"
		}
	],
	"bufferViews":[
		{
			"buffer":0,
			"byteLength":38700,
			"byteOffset":0,
			"target":34962
		},
		{
			"buffer":0,
			"byteLength":38700,
			"byteOffset":38700,
			"target":34962
		},
		{
			"buffer":0,
			"byteLength":25800,
			"byteOffset":77400,
			"target":34962
		},
		{
			"buffer":0,
			"byteLength":19932,
			"byteOffset":103200,
			"target":34963
		}
	],
	"samplers":[
		{
			"magFilter":9729,
			"minFilter":9987
		}
	],
	"buffers":[
		{
			"byteLength":123132,
			"uri":"Gun_Pistol.bin"
		}
	]
}
