{
	"asset":{
		"generator":"Khronos glTF Blender I/O v4.0.44",
		"version":"2.0"
	},
	"scene":0,
	"scenes":[
		{
			"name":"Scene",
			"nodes":[
				0,
				1
			]
		}
	],
	"nodes":[
		{
			"mesh":0,
			"name":"Gun_Revolver_Barrel",
			"translation":[
				-0.08277517557144165,
				0.07113900035619736,
				0
			]
		},
		{
			"mesh":1,
			"name":"Gun_Revolver"
		}
	],
	"materials":[
		{
			"doubleSided":true,
			"name":"MI_Guns_Batch2",
			"normalTexture":{
				"index":0
			},
			"pbrMetallicRoughness":{
				"baseColorTexture":{
					"index":1
				},
				"metallicRoughnessTexture":{
					"index":2
				}
			}
		}
	],
	"meshes":[
		{
			"name":"Cylinder.173",
			"primitives":[
				{
					"attributes":{
						"POSITION":0,
						"NORMAL":1,
						"TEXCOORD_0":2
					},
					"indices":3,
					"material":0
				}
			]
		},
		{
			"name":"Cube.393",
			"primitives":[
				{
					"attributes":{
						"POSITION":4,
						"NORMAL":5,
						"TEXCOORD_0":6
					},
					"indices":7,
					"material":0
				}
			]
		}
	],
	"textures":[
		{
			"sampler":0,
			"source":0
		},
		{
			"sampler":0,
			"source":1
		},
		{
			"sampler":0,
			"source":2
		}
	],
	"images":[
		{
			"mimeType":"image/png",
			"name":"T_Guns_Batch2_Normal",
			"uri":"T_Guns_Batch2_Normal.png"
		},
		{
			"mimeType":"image/png",
			"name":"T_Guns_Batch2_BaseColor",
			"uri":"T_Guns_Batch2_BaseColor.png"
		},
		{
			"mimeType":"image/png",
			"name":"T_Guns_Batch2_ORM",
			"uri":"T_Guns_Batch2_ORM.png"
		}
	],
	"accessors":[
		{
			"bufferView":0,
			"componentType":5126,
			"count":1184,
			"max":[
				0.01457221806049347,
				0.04071911424398422,
				0.040719080716371536
			],
			"min":[
				-0.10722258687019348,
				-0.04071907699108124,
				-0.04071908816695213
			],
			"type":"VEC3"
		},
		{
			"bufferView":1,
			"componentType":5126,
			"count":1184,
			"type":"VEC3"
		},
		{
			"bufferView":2,
			"componentType":5126,
			"count":1184,
			"type":"VEC2"
		},
		{
			"bufferView":3,
			"componentType":5123,
			"count":3360,
			"type":"SCALAR"
		},
		{
			"bufferView":4,
			"componentType":5126,
			"count":3610,
			"max":[
				0.07839532941579819,
				0.14774946868419647,
				0.04037002846598625
			],
			"min":[
				-0.45219647884368896,
				-0.11384271085262299,
				-0.04037000238895416
			],
			"type":"VEC3"
		},
		{
			"bufferView":5,
			"componentType":5126,
			"count":3610,
			"type":"VEC3"
		},
		{
			"bufferView":6,
			"componentType":5126,
			"count":3610,
			"type":"VEC2"
		},
		{
			"bufferView":7,
			"componentType":5123,
			"count":10170,
			"type":"SCALAR"
		}
	],
	"bufferViews":[
		{
			"buffer":0,
			"byteLength":14208,
			"byteOffset":0,
			"target":34962
		},
		{
			"buffer":0,
			"byteLength":14208,
			"byteOffset":14208,
			"target":34962
		},
		{
			"buffer":0,
			"byteLength":9472,
			"byteOffset":28416,
			"target":34962
		},
		{
			"buffer":0,
			"byteLength":6720,
			"byteOffset":37888,
			"target":34963
		},
		{
			"buffer":0,
			"byteLength":43320,
			"byteOffset":44608,
			"target":34962
		},
		{
			"buffer":0,
			"byteLength":43320,
			"byteOffset":87928,
			"target":34962
		},
		{
			"buffer":0,
			"byteLength":28880,
			"byteOffset":131248,
			"target":34962
		},
		{
			"buffer":0,
			"byteLength":20340,
			"byteOffset":160128,
			"target":34963
		}
	],
	"samplers":[
		{
			"magFilter":9729,
			"minFilter":9987
		}
	],
	"buffers":[
		{
			"byteLength":180468,
			"uri":"Gun_Revolver.bin"
		}
	]
}
