{
	"asset":{
		"generator":"Khronos glTF Blender I/O v4.0.44",
		"version":"2.0"
	},
	"scene":0,
	"scenes":[
		{
			"name":"Scene",
			"nodes":[
				0
			]
		}
	],
	"nodes":[
		{
			"mesh":0,
			"name":"Gun_Rifle"
		}
	],
	"materials":[
		{
			"doubleSided":true,
			"name":"MI_Guns_Batch1",
			"normalTexture":{
				"index":0
			},
			"pbrMetallicRoughness":{
				"baseColorTexture":{
					"index":1
				},
				"metallicRoughnessTexture":{
					"index":2
				}
			}
		}
	],
	"meshes":[
		{
			"name":"Cube.285",
			"primitives":[
				{
					"attributes":{
						"POSITION":0,
						"NORMAL":1,
						"TEXCOORD_0":2
					},
					"indices":3,
					"material":0
				}
			]
		}
	],
	"textures":[
		{
			"sampler":0,
			"source":0
		},
		{
			"sampler":0,
			"source":1
		},
		{
			"sampler":0,
			"source":2
		}
	],
	"images":[
		{
			"mimeType":"image/png",
			"name":"T_Guns_Batch1_Normal",
			"uri":"T_Guns_Batch1_Normal.png"
		},
		{
			"mimeType":"image/png",
			"name":"T_Guns_Batch1_BaseColor",
			"uri":"T_Guns_Batch1_BaseColor.png"
		},
		{
			"mimeType":"image/png",
			"name":"T_Guns_Batch1_ORM",
			"uri":"T_Guns_Batch1_ORM.png"
		}
	],
	"accessors":[
		{
			"bufferView":0,
			"componentType":5126,
			"count":5554,
			"max":[
				0.30806678533554077,
				0.2812355160713196,
				0.04349888861179352
			],
			"min":[
				-0.7518705725669861,
				-0.09263072907924652,
				-0.04349885135889053
			],
			"type":"VEC3"
		},
		{
			"bufferView":1,
			"componentType":5126,
			"count":5554,
			"type":"VEC3"
		},
		{
			"bufferView":2,
			"componentType":5126,
			"count":5554,
			"type":"VEC2"
		},
		{
			"bufferView":3,
			"componentType":5123,
			"count":18582,
			"type":"SCALAR"
		}
	],
	"bufferViews":[
		{
			"buffer":0,
			"byteLength":66648,
			"byteOffset":0,
			"target":34962
		},
		{
			"buffer":0,
			"byteLength":66648,
			"byteOffset":66648,
			"target":34962
		},
		{
			"buffer":0,
			"byteLength":44432,
			"byteOffset":133296,
			"target":34962
		},
		{
			"buffer":0,
			"byteLength":37164,
			"byteOffset":177728,
			"target":34963
		}
	],
	"samplers":[
		{
			"magFilter":9729,
			"minFilter":9987
		}
	],
	"buffers":[
		{
			"byteLength":214892,
			"uri":"Gun_Rifle.bin"
		}
	]
}
