{
	"asset":{
		"generator":"Khronos glTF Blender I/O v4.0.44",
		"version":"2.0"
	},
	"scene":0,
	"scenes":[
		{
			"name":"Scene",
			"nodes":[
				0
			]
		}
	],
	"nodes":[
		{
			"mesh":0,
			"name":"Gun_Sniper"
		}
	],
	"materials":[
		{
			"doubleSided":true,
			"name":"MI_Guns_Batch2",
			"normalTexture":{
				"index":0
			},
			"pbrMetallicRoughness":{
				"baseColorTexture":{
					"index":1
				},
				"metallicRoughnessTexture":{
					"index":2
				}
			}
		}
	],
	"meshes":[
		{
			"name":"Cylinder.171",
			"primitives":[
				{
					"attributes":{
						"POSITION":0,
						"NORMAL":1,
						"TEXCOORD_0":2
					},
					"indices":3,
					"material":0
				}
			]
		}
	],
	"textures":[
		{
			"sampler":0,
			"source":0
		},
		{
			"sampler":0,
			"source":1
		},
		{
			"sampler":0,
			"source":2
		}
	],
	"images":[
		{
			"mimeType":"image/png",
			"name":"T_Guns_Batch2_Normal",
			"uri":"T_Guns_Batch2_Normal.png"
		},
		{
			"mimeType":"image/png",
			"name":"T_Guns_Batch2_BaseColor",
			"uri":"T_Guns_Batch2_BaseColor.png"
		},
		{
			"mimeType":"image/png",
			"name":"T_Guns_Batch2_ORM",
			"uri":"T_Guns_Batch2_ORM.png"
		}
	],
	"accessors":[
		{
			"bufferView":0,
			"componentType":5126,
			"count":8249,
			"max":[
				0.4407726526260376,
				0.2094767838716507,
				0.029590627178549767
			],
			"min":[
				-1.276853322982788,
				-0.12042030692100525,
				-0.02959059737622738
			],
			"type":"VEC3"
		},
		{
			"bufferView":1,
			"componentType":5126,
			"count":8249,
			"type":"VEC3"
		},
		{
			"bufferView":2,
			"componentType":5126,
			"count":8249,
			"type":"VEC2"
		},
		{
			"bufferView":3,
			"componentType":5123,
			"count":26184,
			"type":"SCALAR"
		}
	],
	"bufferViews":[
		{
			"buffer":0,
			"byteLength":98988,
			"byteOffset":0,
			"target":34962
		},
		{
			"buffer":0,
			"byteLength":98988,
			"byteOffset":98988,
			"target":34962
		},
		{
			"buffer":0,
			"byteLength":65992,
			"byteOffset":197976,
			"target":34962
		},
		{
			"buffer":0,
			"byteLength":52368,
			"byteOffset":263968,
			"target":34963
		}
	],
	"samplers":[
		{
			"magFilter":9729,
			"minFilter":9987
		}
	],
	"buffers":[
		{
			"byteLength":316336,
			"uri":"Gun_Sniper.bin"
		}
	]
}
