{
	"asset":{
		"generator":"Khronos glTF Blender I/O v4.0.44",
		"version":"2.0"
	},
	"scene":0,
	"scenes":[
		{
			"name":"Scene",
			"nodes":[
				0
			]
		}
	],
	"nodes":[
		{
			"mesh":0,
			"name":"Prop_Crate"
		}
	],
	"materials":[
		{
			"doubleSided":true,
			"name":"MI_Props_Crates",
			"normalTexture":{
				"index":0
			},
			"pbrMetallicRoughness":{
				"baseColorTexture":{
					"index":1
				},
				"metallicRoughnessTexture":{
					"index":2
				}
			}
		}
	],
	"meshes":[
		{
			"name":"Cube.006",
			"primitives":[
				{
					"attributes":{
						"POSITION":0,
						"NORMAL":1,
						"TEXCOORD_0":2
					},
					"indices":3,
					"material":0
				}
			]
		}
	],
	"textures":[
		{
			"sampler":0,
			"source":0
		},
		{
			"sampler":0,
			"source":1
		},
		{
			"sampler":0,
			"source":2
		}
	],
	"images":[
		{
			"mimeType":"image/png",
			"name":"T_Props_Crates_Normal",
			"uri":"T_Props_Crates_Normal.png"
		},
		{
			"mimeType":"image/png",
			"name":"T_Props_Crates_BaseColor",
			"uri":"T_Props_Crates_BaseColor.png"
		},
		{
			"mimeType":"image/png",
			"name":"T_Props_Crates_ORM",
			"uri":"T_Props_Crates_ORM.png"
		}
	],
	"accessors":[
		{
			"bufferView":0,
			"componentType":5126,
			"count":5874,
			"max":[
				0.7844926714897156,
				1.5014315843582153,
				0.75
			],
			"min":[
				-0.7844926118850708,
				0.0014312076382339,
				-0.75
			],
			"type":"VEC3"
		},
		{
			"bufferView":1,
			"componentType":5126,
			"count":5874,
			"type":"VEC3"
		},
		{
			"bufferView":2,
			"componentType":5126,
			"count":5874,
			"type":"VEC2"
		},
		{
			"bufferView":3,
			"componentType":5123,
			"count":11952,
			"type":"SCALAR"
		}
	],
	"bufferViews":[
		{
			"buffer":0,
			"byteLength":70488,
			"byteOffset":0,
			"target":34962
		},
		{
			"buffer":0,
			"byteLength":70488,
			"byteOffset":70488,
			"target":34962
		},
		{
			"buffer":0,
			"byteLength":46992,
			"byteOffset":140976,
			"target":34962
		},
		{
			"buffer":0,
			"byteLength":23904,
			"byteOffset":187968,
			"target":34963
		}
	],
	"samplers":[
		{
			"magFilter":9729,
			"minFilter":9987
		}
	],
	"buffers":[
		{
			"byteLength":211872,
			"uri":"Prop_Crate.bin"
		}
	]
}
