{
	"asset":{
		"generator":"Khronos glTF Blender I/O v4.0.44",
		"version":"2.0"
	},
	"scene":0,
	"scenes":[
		{
			"name":"Scene",
			"nodes":[
				5
			]
		}
	],
	"nodes":[
		{
			"name":"Chest_Top",
			"translation":[
				0,
				0.6396616101264954,
				-0.38984745740890503
			]
		},
		{
			"children":[
				0
			],
			"name":"Chest_Bottom",
			"rotation":[
				0,
				-1.1920928955078125e-07,
				0,
				1
			]
		},
		{
			"children":[
				1
			],
			"name":"Root",
			"rotation":[
				0,
				1.1920928955078125e-07,
				0,
				1
			]
		},
		{
			"mesh":0,
			"name":"Prop_Chest",
			"skin":0
		},
		{
			"mesh":1,
			"name":"Prop_Chest_Lid",
			"skin":0
		},
		{
			"children":[
				3,
				4,
				2
			],
			"name":"Rig"
		}
	],
	"animations":[
		{
			"channels":[
				{
					"sampler":0,
					"target":{
						"node":2,
						"path":"translation"
					}
				},
				{
					"sampler":1,
					"target":{
						"node":2,
						"path":"rotation"
					}
				},
				{
					"sampler":2,
					"target":{
						"node":2,
						"path":"scale"
					}
				},
				{
					"sampler":3,
					"target":{
						"node":1,
						"path":"translation"
					}
				},
				{
					"sampler":4,
					"target":{
						"node":1,
						"path":"rotation"
					}
				},
				{
					"sampler":5,
					"target":{
						"node":1,
						"path":"scale"
					}
				},
				{
					"sampler":6,
					"target":{
						"node":0,
						"path":"translation"
					}
				},
				{
					"sampler":7,
					"target":{
						"node":0,
						"path":"rotation"
					}
				},
				{
					"sampler":8,
					"target":{
						"node":0,
						"path":"scale"
					}
				}
			],
			"name":"Close",
			"samplers":[
				{
					"input":13,
					"interpolation":"STEP",
					"output":14
				},
				{
					"input":13,
					"interpolation":"STEP",
					"output":15
				},
				{
					"input":13,
					"interpolation":"STEP",
					"output":16
				},
				{
					"input":17,
					"interpolation":"LINEAR",
					"output":18
				},
				{
					"input":17,
					"interpolation":"LINEAR",
					"output":19
				},
				{
					"input":13,
					"interpolation":"STEP",
					"output":20
				},
				{
					"input":13,
					"interpolation":"STEP",
					"output":21
				},
				{
					"input":17,
					"interpolation":"LINEAR",
					"output":22
				},
				{
					"input":13,
					"interpolation":"STEP",
					"output":23
				}
			]
		},
		{
			"channels":[
				{
					"sampler":0,
					"target":{
						"node":2,
						"path":"translation"
					}
				},
				{
					"sampler":1,
					"target":{
						"node":2,
						"path":"rotation"
					}
				},
				{
					"sampler":2,
					"target":{
						"node":2,
						"path":"scale"
					}
				},
				{
					"sampler":3,
					"target":{
						"node":1,
						"path":"translation"
					}
				},
				{
					"sampler":4,
					"target":{
						"node":1,
						"path":"rotation"
					}
				},
				{
					"sampler":5,
					"target":{
						"node":1,
						"path":"scale"
					}
				},
				{
					"sampler":6,
					"target":{
						"node":0,
						"path":"translation"
					}
				},
				{
					"sampler":7,
					"target":{
						"node":0,
						"path":"rotation"
					}
				},
				{
					"sampler":8,
					"target":{
						"node":0,
						"path":"scale"
					}
				}
			],
			"name":"Idle_Closed",
			"samplers":[
				{
					"input":24,
					"interpolation":"STEP",
					"output":25
				},
				{
					"input":24,
					"interpolation":"STEP",
					"output":26
				},
				{
					"input":24,
					"interpolation":"STEP",
					"output":27
				},
				{
					"input":24,
					"interpolation":"STEP",
					"output":28
				},
				{
					"input":24,
					"interpolation":"STEP",
					"output":29
				},
				{
					"input":24,
					"interpolation":"STEP",
					"output":30
				},
				{
					"input":24,
					"interpolation":"STEP",
					"output":31
				},
				{
					"input":24,
					"interpolation":"STEP",
					"output":32
				},
				{
					"input":24,
					"interpolation":"STEP",
					"output":33
				}
			]
		},
		{
			"channels":[
				{
					"sampler":0,
					"target":{
						"node":2,
						"path":"translation"
					}
				},
				{
					"sampler":1,
					"target":{
						"node":2,
						"path":"rotation"
					}
				},
				{
					"sampler":2,
					"target":{
						"node":2,
						"path":"scale"
					}
				},
				{
					"sampler":3,
					"target":{
						"node":1,
						"path":"translation"
					}
				},
				{
					"sampler":4,
					"target":{
						"node":1,
						"path":"rotation"
					}
				},
				{
					"sampler":5,
					"target":{
						"node":1,
						"path":"scale"
					}
				},
				{
					"sampler":6,
					"target":{
						"node":0,
						"path":"translation"
					}
				},
				{
					"sampler":7,
					"target":{
						"node":0,
						"path":"rotation"
					}
				},
				{
					"sampler":8,
					"target":{
						"node":0,
						"path":"scale"
					}
				}
			],
			"name":"Idle_Open",
			"samplers":[
				{
					"input":24,
					"interpolation":"STEP",
					"output":34
				},
				{
					"input":24,
					"interpolation":"STEP",
					"output":35
				},
				{
					"input":24,
					"interpolation":"STEP",
					"output":36
				},
				{
					"input":24,
					"interpolation":"STEP",
					"output":37
				},
				{
					"input":24,
					"interpolation":"STEP",
					"output":38
				},
				{
					"input":24,
					"interpolation":"STEP",
					"output":39
				},
				{
					"input":24,
					"interpolation":"STEP",
					"output":40
				},
				{
					"input":24,
					"interpolation":"STEP",
					"output":41
				},
				{
					"input":24,
					"interpolation":"STEP",
					"output":42
				}
			]
		},
		{
			"channels":[
				{
					"sampler":0,
					"target":{
						"node":2,
						"path":"translation"
					}
				},
				{
					"sampler":1,
					"target":{
						"node":2,
						"path":"rotation"
					}
				},
				{
					"sampler":2,
					"target":{
						"node":2,
						"path":"scale"
					}
				},
				{
					"sampler":3,
					"target":{
						"node":1,
						"path":"translation"
					}
				},
				{
					"sampler":4,
					"target":{
						"node":1,
						"path":"rotation"
					}
				},
				{
					"sampler":5,
					"target":{
						"node":1,
						"path":"scale"
					}
				},
				{
					"sampler":6,
					"target":{
						"node":0,
						"path":"translation"
					}
				},
				{
					"sampler":7,
					"target":{
						"node":0,
						"path":"rotation"
					}
				},
				{
					"sampler":8,
					"target":{
						"node":0,
						"path":"scale"
					}
				}
			],
			"name":"Open",
			"samplers":[
				{
					"input":43,
					"interpolation":"STEP",
					"output":44
				},
				{
					"input":43,
					"interpolation":"STEP",
					"output":45
				},
				{
					"input":43,
					"interpolation":"STEP",
					"output":46
				},
				{
					"input":47,
					"interpolation":"LINEAR",
					"output":48
				},
				{
					"input":47,
					"interpolation":"LINEAR",
					"output":49
				},
				{
					"input":43,
					"interpolation":"STEP",
					"output":50
				},
				{
					"input":43,
					"interpolation":"STEP",
					"output":51
				},
				{
					"input":47,
					"interpolation":"LINEAR",
					"output":52
				},
				{
					"input":43,
					"interpolation":"STEP",
					"output":53
				}
			]
		}
	],
	"materials":[
		{
			"doubleSided":true,
			"name":"MI_Props_Batch2",
			"normalTexture":{
				"index":0
			},
			"pbrMetallicRoughness":{
				"baseColorTexture":{
					"index":1
				},
				"metallicRoughnessTexture":{
					"index":2
				}
			}
		}
	],
	"meshes":[
		{
			"name":"Cube.224",
			"primitives":[
				{
					"attributes":{
						"POSITION":0,
						"NORMAL":1,
						"TEXCOORD_0":2,
						"JOINTS_0":3,
						"WEIGHTS_0":4
					},
					"indices":5,
					"material":0
				}
			]
		},
		{
			"name":"Cube.002",
			"primitives":[
				{
					"attributes":{
						"POSITION":7,
						"NORMAL":8,
						"TEXCOORD_0":9,
						"JOINTS_0":10,
						"WEIGHTS_0":11
					},
					"indices":12,
					"material":0
				}
			]
		}
	],
	"textures":[
		{
			"sampler":0,
			"source":0
		},
		{
			"sampler":0,
			"source":1
		},
		{
			"sampler":0,
			"source":2
		}
	],
	"images":[
		{
			"mimeType":"image/png",
			"name":"T_Props_Batch2_Normal",
			"uri":"T_Props_Batch2_Normal.png"
		},
		{
			"mimeType":"image/png",
			"name":"T_Props_Batch2_BaseColor",
			"uri":"T_Props_Batch2_BaseColor.png"
		},
		{
			"mimeType":"image/png",
			"name":"T_Props_Batch2_ORM",
			"uri":"T_Props_Batch2_ORM.png"
		}
	],
	"skins":[
		{
			"inverseBindMatrices":6,
			"joints":[
				2,
				1,
				0
			],
			"name":"Rig"
		}
	],
	"accessors":[
		{
			"bufferView":0,
			"componentType":5126,
			"count":1683,
			"max":[
				0.9213386178016663,
				0.6516847014427185,
				0.49477753043174744
			],
			"min":[
				-0.9213386178016663,
				0.013033606112003326,
				-0.4352850914001465
			],
			"type":"VEC3"
		},
		{
			"bufferView":1,
			"componentType":5126,
			"count":1683,
			"type":"VEC3"
		},
		{
			"bufferView":2,
			"componentType":5126,
			"count":1683,
			"type":"VEC2"
		},
		{
			"bufferView":3,
			"componentType":5121,
			"count":1683,
			"type":"VEC4"
		},
		{
			"bufferView":4,
			"componentType":5126,
			"count":1683,
			"type":"VEC4"
		},
		{
			"bufferView":5,
			"componentType":5123,
			"count":5166,
			"type":"SCALAR"
		},
		{
			"bufferView":6,
			"componentType":5126,
			"count":3,
			"type":"MAT4"
		},
		{
			"bufferView":7,
			"componentType":5126,
			"count":2163,
			"max":[
				0.9008528590202332,
				0.9540639519691467,
				0.5439782738685608
			],
			"min":[
				-0.9008528590202332,
				0.5348913073539734,
				-0.4104493260383606
			],
			"type":"VEC3"
		},
		{
			"bufferView":8,
			"componentType":5126,
			"count":2163,
			"type":"VEC3"
		},
		{
			"bufferView":9,
			"componentType":5126,
			"count":2163,
			"type":"VEC2"
		},
		{
			"bufferView":10,
			"componentType":5121,
			"count":2163,
			"type":"VEC4"
		},
		{
			"bufferView":11,
			"componentType":5126,
			"count":2163,
			"type":"VEC4"
		},
		{
			"bufferView":12,
			"componentType":5123,
			"count":5100,
			"type":"SCALAR"
		},
		{
			"bufferView":13,
			"componentType":5126,
			"count":2,
			"max":[
				0.5
			],
			"min":[
				0.03333333333333333
			],
			"type":"SCALAR"
		},
		{
			"bufferView":14,
			"componentType":5126,
			"count":2,
			"type":"VEC3"
		},
		{
			"bufferView":15,
			"componentType":5126,
			"count":2,
			"type":"VEC4"
		},
		{
			"bufferView":16,
			"componentType":5126,
			"count":2,
			"type":"VEC3"
		},
		{
			"bufferView":17,
			"componentType":5126,
			"count":15,
			"max":[
				0.5
			],
			"min":[
				0.03333333333333333
			],
			"type":"SCALAR"
		},
		{
			"bufferView":18,
			"componentType":5126,
			"count":15,
			"type":"VEC3"
		},
		{
			"bufferView":19,
			"componentType":5126,
			"count":15,
			"type":"VEC4"
		},
		{
			"bufferView":20,
			"componentType":5126,
			"count":2,
			"type":"VEC3"
		},
		{
			"bufferView":21,
			"componentType":5126,
			"count":2,
			"type":"VEC3"
		},
		{
			"bufferView":22,
			"componentType":5126,
			"count":15,
			"type":"VEC4"
		},
		{
			"bufferView":23,
			"componentType":5126,
			"count":2,
			"type":"VEC3"
		},
		{
			"bufferView":24,
			"componentType":5126,
			"count":2,
			"max":[
				0.3333333333333333
			],
			"min":[
				0
			],
			"type":"SCALAR"
		},
		{
			"bufferView":25,
			"componentType":5126,
			"count":2,
			"type":"VEC3"
		},
		{
			"bufferView":26,
			"componentType":5126,
			"count":2,
			"type":"VEC4"
		},
		{
			"bufferView":27,
			"componentType":5126,
			"count":2,
			"type":"VEC3"
		},
		{
			"bufferView":28,
			"componentType":5126,
			"count":2,
			"type":"VEC3"
		},
		{
			"bufferView":29,
			"componentType":5126,
			"count":2,
			"type":"VEC4"
		},
		{
			"bufferView":30,
			"componentType":5126,
			"count":2,
			"type":"VEC3"
		},
		{
			"bufferView":31,
			"componentType":5126,
			"count":2,
			"type":"VEC3"
		},
		{
			"bufferView":32,
			"componentType":5126,
			"count":2,
			"type":"VEC4"
		},
		{
			"bufferView":33,
			"componentType":5126,
			"count":2,
			"type":"VEC3"
		},
		{
			"bufferView":34,
			"componentType":5126,
			"count":2,
			"type":"VEC3"
		},
		{
			"bufferView":35,
			"componentType":5126,
			"count":2,
			"type":"VEC4"
		},
		{
			"bufferView":36,
			"componentType":5126,
			"count":2,
			"type":"VEC3"
		},
		{
			"bufferView":37,
			"componentType":5126,
			"count":2,
			"type":"VEC3"
		},
		{
			"bufferView":38,
			"componentType":5126,
			"count":2,
			"type":"VEC4"
		},
		{
			"bufferView":39,
			"componentType":5126,
			"count":2,
			"type":"VEC3"
		},
		{
			"bufferView":40,
			"componentType":5126,
			"count":2,
			"type":"VEC3"
		},
		{
			"bufferView":41,
			"componentType":5126,
			"count":2,
			"type":"VEC4"
		},
		{
			"bufferView":42,
			"componentType":5126,
			"count":2,
			"type":"VEC3"
		},
		{
			"bufferView":43,
			"componentType":5126,
			"count":2,
			"max":[
				0.6333333333333333
			],
			"min":[
				0
			],
			"type":"SCALAR"
		},
		{
			"bufferView":44,
			"componentType":5126,
			"count":2,
			"type":"VEC3"
		},
		{
			"bufferView":45,
			"componentType":5126,
			"count":2,
			"type":"VEC4"
		},
		{
			"bufferView":46,
			"componentType":5126,
			"count":2,
			"type":"VEC3"
		},
		{
			"bufferView":47,
			"componentType":5126,
			"count":20,
			"max":[
				0.6333333333333333
			],
			"min":[
				0
			],
			"type":"SCALAR"
		},
		{
			"bufferView":48,
			"componentType":5126,
			"count":20,
			"type":"VEC3"
		},
		{
			"bufferView":49,
			"componentType":5126,
			"count":20,
			"type":"VEC4"
		},
		{
			"bufferView":50,
			"componentType":5126,
			"count":2,
			"type":"VEC3"
		},
		{
			"bufferView":51,
			"componentType":5126,
			"count":2,
			"type":"VEC3"
		},
		{
			"bufferView":52,
			"componentType":5126,
			"count":20,
			"type":"VEC4"
		},
		{
			"bufferView":53,
			"componentType":5126,
			"count":2,
			"type":"VEC3"
		}
	],
	"bufferViews":[
		{
			"buffer":0,
			"byteLength":20196,
			"byteOffset":0,
			"target":34962
		},
		{
			"buffer":0,
			"byteLength":20196,
			"byteOffset":20196,
			"target":34962
		},
		{
			"buffer":0,
			"byteLength":13464,
			"byteOffset":40392,
			"target":34962
		},
		{
			"buffer":0,
			"byteLength":6732,
			"byteOffset":53856,
			"target":34962
		},
		{
			"buffer":0,
			"byteLength":26928,
			"byteOffset":60588,
			"target":34962
		},
		{
			"buffer":0,
			"byteLength":10332,
			"byteOffset":87516,
			"target":34963
		},
		{
			"buffer":0,
			"byteLength":192,
			"byteOffset":97848
		},
		{
			"buffer":0,
			"byteLength":25956,
			"byteOffset":98040,
			"target":34962
		},
		{
			"buffer":0,
			"byteLength":25956,
			"byteOffset":123996,
			"target":34962
		},
		{
			"buffer":0,
			"byteLength":17304,
			"byteOffset":149952,
			"target":34962
		},
		{
			"buffer":0,
			"byteLength":8652,
			"byteOffset":167256,
			"target":34962
		},
		{
			"buffer":0,
			"byteLength":34608,
			"byteOffset":175908,
			"target":34962
		},
		{
			"buffer":0,
			"byteLength":10200,
			"byteOffset":210516,
			"target":34963
		},
		{
			"buffer":0,
			"byteLength":8,
			"byteOffset":220716
		},
		{
			"buffer":0,
			"byteLength":24,
			"byteOffset":220724
		},
		{
			"buffer":0,
			"byteLength":32,
			"byteOffset":220748
		},
		{
			"buffer":0,
			"byteLength":24,
			"byteOffset":220780
		},
		{
			"buffer":0,
			"byteLength":60,
			"byteOffset":220804
		},
		{
			"buffer":0,
			"byteLength":180,
			"byteOffset":220864
		},
		{
			"buffer":0,
			"byteLength":240,
			"byteOffset":221044
		},
		{
			"buffer":0,
			"byteLength":24,
			"byteOffset":221284
		},
		{
			"buffer":0,
			"byteLength":24,
			"byteOffset":221308
		},
		{
			"buffer":0,
			"byteLength":240,
			"byteOffset":221332
		},
		{
			"buffer":0,
			"byteLength":24,
			"byteOffset":221572
		},
		{
			"buffer":0,
			"byteLength":8,
			"byteOffset":221596
		},
		{
			"buffer":0,
			"byteLength":24,
			"byteOffset":221604
		},
		{
			"buffer":0,
			"byteLength":32,
			"byteOffset":221628
		},
		{
			"buffer":0,
			"byteLength":24,
			"byteOffset":221660
		},
		{
			"buffer":0,
			"byteLength":24,
			"byteOffset":221684
		},
		{
			"buffer":0,
			"byteLength":32,
			"byteOffset":221708
		},
		{
			"buffer":0,
			"byteLength":24,
			"byteOffset":221740
		},
		{
			"buffer":0,
			"byteLength":24,
			"byteOffset":221764
		},
		{
			"buffer":0,
			"byteLength":32,
			"byteOffset":221788
		},
		{
			"buffer":0,
			"byteLength":24,
			"byteOffset":221820
		},
		{
			"buffer":0,
			"byteLength":24,
			"byteOffset":221844
		},
		{
			"buffer":0,
			"byteLength":32,
			"byteOffset":221868
		},
		{
			"buffer":0,
			"byteLength":24,
			"byteOffset":221900
		},
		{
			"buffer":0,
			"byteLength":24,
			"byteOffset":221924
		},
		{
			"buffer":0,
			"byteLength":32,
			"byteOffset":221948
		},
		{
			"buffer":0,
			"byteLength":24,
			"byteOffset":221980
		},
		{
			"buffer":0,
			"byteLength":24,
			"byteOffset":222004
		},
		{
			"buffer":0,
			"byteLength":32,
			"byteOffset":222028
		},
		{
			"buffer":0,
			"byteLength":24,
			"byteOffset":222060
		},
		{
			"buffer":0,
			"byteLength":8,
			"byteOffset":222084
		},
		{
			"buffer":0,
			"byteLength":24,
			"byteOffset":222092
		},
		{
			"buffer":0,
			"byteLength":32,
			"byteOffset":222116
		},
		{
			"buffer":0,
			"byteLength":24,
			"byteOffset":222148
		},
		{
			"buffer":0,
			"byteLength":80,
			"byteOffset":222172
		},
		{
			"buffer":0,
			"byteLength":240,
			"byteOffset":222252
		},
		{
			"buffer":0,
			"byteLength":320,
			"byteOffset":222492
		},
		{
			"buffer":0,
			"byteLength":24,
			"byteOffset":222812
		},
		{
			"buffer":0,
			"byteLength":24,
			"byteOffset":222836
		},
		{
			"buffer":0,
			"byteLength":320,
			"byteOffset":222860
		},
		{
			"buffer":0,
			"byteLength":24,
			"byteOffset":223180
		}
	],
	"samplers":[
		{
			"magFilter":9729,
			"minFilter":9987
		}
	],
	"buffers":[
		{
			"byteLength":223204,
			"uri":"Prop_Chest.bin"
		}
	]
}
