{
	"asset":{
		"generator":"Khronos glTF Blender I/O v4.0.44",
		"version":"2.0"
	},
	"scene":0,
	"scenes":[
		{
			"name":"Scene",
			"nodes":[
				0
			]
		}
	],
	"nodes":[
		{
			"mesh":0,
			"name":"Prop_Barrel1"
		}
	],
	"materials":[
		{
			"doubleSided":true,
			"name":"MI_Props_Batch1",
			"normalTexture":{
				"index":0
			},
			"pbrMetallicRoughness":{
				"baseColorTexture":{
					"index":1
				},
				"metallicRoughnessTexture":{
					"index":2
				}
			}
		}
	],
	"meshes":[
		{
			"name":"Cylinder.001",
			"primitives":[
				{
					"attributes":{
						"POSITION":0,
						"NORMAL":1,
						"TEXCOORD_0":2
					},
					"indices":3,
					"material":0
				}
			]
		}
	],
	"textures":[
		{
			"sampler":0,
			"source":0
		},
		{
			"sampler":0,
			"source":1
		},
		{
			"sampler":0,
			"source":2
		}
	],
	"images":[
		{
			"mimeType":"image/png",
			"name":"T_Props_Batch1_Normal",
			"uri":"T_Props_Batch1_Normal.png"
		},
		{
			"mimeType":"image/png",
			"name":"T_Props_Batch1_BaseColor",
			"uri":"T_Props_Batch1_BaseColor.png"
		},
		{
			"mimeType":"image/png",
			"name":"T_Props_Batch1_ORM",
			"uri":"T_Props_Batch1_ORM.png"
		}
	],
	"accessors":[
		{
			"bufferView":0,
			"componentType":5126,
			"count":2605,
			"max":[
				0.36100906133651733,
				1.1111055612564087,
				0.32427307963371277
			],
			"min":[
				-0.36100906133651733,
				-1.808013507798023e-07,
				-0.32427388429641724
			],
			"type":"VEC3"
		},
		{
			"bufferView":1,
			"componentType":5126,
			"count":2605,
			"type":"VEC3"
		},
		{
			"bufferView":2,
			"componentType":5126,
			"count":2605,
			"type":"VEC2"
		},
		{
			"bufferView":3,
			"componentType":5123,
			"count":7056,
			"type":"SCALAR"
		}
	],
	"bufferViews":[
		{
			"buffer":0,
			"byteLength":31260,
			"byteOffset":0,
			"target":34962
		},
		{
			"buffer":0,
			"byteLength":31260,
			"byteOffset":31260,
			"target":34962
		},
		{
			"buffer":0,
			"byteLength":20840,
			"byteOffset":62520,
			"target":34962
		},
		{
			"buffer":0,
			"byteLength":14112,
			"byteOffset":83360,
			"target":34963
		}
	],
	"samplers":[
		{
			"magFilter":9729,
			"minFilter":9987
		}
	],
	"buffers":[
		{
			"byteLength":97472,
			"uri":"Prop_Barrel1.bin"
		}
	]
}
