{
	"asset":{
		"generator":"Khronos glTF Blender I/O v4.0.44",
		"version":"2.0"
	},
	"scene":0,
	"scenes":[
		{
			"name":"Scene",
			"nodes":[
				0
			]
		}
	],
	"nodes":[
		{
			"mesh":0,
			"name":"Prop_HealthPack"
		}
	],
	"materials":[
		{
			"doubleSided":true,
			"name":"MI_Props_Batch2",
			"normalTexture":{
				"index":0
			},
			"pbrMetallicRoughness":{
				"baseColorTexture":{
					"index":1
				},
				"metallicRoughnessTexture":{
					"index":2
				}
			}
		}
	],
	"meshes":[
		{
			"name":"Cylinder.104",
			"primitives":[
				{
					"attributes":{
						"POSITION":0,
						"NORMAL":1,
						"TEXCOORD_0":2
					},
					"indices":3,
					"material":0
				}
			]
		}
	],
	"textures":[
		{
			"sampler":0,
			"source":0
		},
		{
			"sampler":0,
			"source":1
		},
		{
			"sampler":0,
			"source":2
		}
	],
	"images":[
		{
			"mimeType":"image/png",
			"name":"T_Props_Batch2_Normal",
			"uri":"T_Props_Batch2_Normal.png"
		},
		{
			"mimeType":"image/png",
			"name":"T_Props_Batch2_BaseColor",
			"uri":"T_Props_Batch2_BaseColor.png"
		},
		{
			"mimeType":"image/png",
			"name":"T_Props_Batch2_ORM",
			"uri":"T_Props_Batch2_ORM.png"
		}
	],
	"accessors":[
		{
			"bufferView":0,
			"componentType":5126,
			"count":2590,
			"max":[
				0.21536017954349518,
				0.3447558283805847,
				0.08725651353597641
			],
			"min":[
				-0.21535955369472504,
				-0.25653353333473206,
				-0.08725658804178238
			],
			"type":"VEC3"
		},
		{
			"bufferView":1,
			"componentType":5126,
			"count":2590,
			"type":"VEC3"
		},
		{
			"bufferView":2,
			"componentType":5126,
			"count":2590,
			"type":"VEC2"
		},
		{
			"bufferView":3,
			"componentType":5123,
			"count":7140,
			"type":"SCALAR"
		}
	],
	"bufferViews":[
		{
			"buffer":0,
			"byteLength":31080,
			"byteOffset":0,
			"target":34962
		},
		{
			"buffer":0,
			"byteLength":31080,
			"byteOffset":31080,
			"target":34962
		},
		{
			"buffer":0,
			"byteLength":20720,
			"byteOffset":62160,
			"target":34962
		},
		{
			"buffer":0,
			"byteLength":14280,
			"byteOffset":82880,
			"target":34963
		}
	],
	"samplers":[
		{
			"magFilter":9729,
			"minFilter":9987
		}
	],
	"buffers":[
		{
			"byteLength":97160,
			"uri":"Prop_HealthPack.bin"
		}
	]
}
