{
	"asset":{
		"generator":"Khronos glTF Blender I/O v4.0.44",
		"version":"2.0"
	},
	"scene":0,
	"scenes":[
		{
			"name":"Scene",
			"nodes":[
				0
			]
		}
	],
	"nodes":[
		{
			"mesh":0,
			"name":"Prop_Crate_Large"
		}
	],
	"materials":[
		{
			"doubleSided":true,
			"name":"MI_Props_Crates",
			"normalTexture":{
				"index":0
			},
			"pbrMetallicRoughness":{
				"baseColorTexture":{
					"index":1
				},
				"metallicRoughnessTexture":{
					"index":2
				}
			}
		}
	],
	"meshes":[
		{
			"name":"Cube.008",
			"primitives":[
				{
					"attributes":{
						"POSITION":0,
						"NORMAL":1,
						"TEXCOORD_0":2
					},
					"indices":3,
					"material":0
				}
			]
		}
	],
	"textures":[
		{
			"sampler":0,
			"source":0
		},
		{
			"sampler":0,
			"source":1
		},
		{
			"sampler":0,
			"source":2
		}
	],
	"images":[
		{
			"mimeType":"image/png",
			"name":"T_Props_Crates_Normal",
			"uri":"T_Props_Crates_Normal.png"
		},
		{
			"mimeType":"image/png",
			"name":"T_Props_Crates_BaseColor",
			"uri":"T_Props_Crates_BaseColor.png"
		},
		{
			"mimeType":"image/png",
			"name":"T_Props_Crates_ORM",
			"uri":"T_Props_Crates_ORM.png"
		}
	],
	"accessors":[
		{
			"bufferView":0,
			"componentType":5126,
			"count":6076,
			"max":[
				1.7330243587493896,
				1.5014780759811401,
				0.7500001192092896
			],
			"min":[
				-1.7330242395401,
				0.0014765558298677206,
				-0.7500001192092896
			],
			"type":"VEC3"
		},
		{
			"bufferView":1,
			"componentType":5126,
			"count":6076,
			"type":"VEC3"
		},
		{
			"bufferView":2,
			"componentType":5126,
			"count":6076,
			"type":"VEC2"
		},
		{
			"bufferView":3,
			"componentType":5123,
			"count":12048,
			"type":"SCALAR"
		}
	],
	"bufferViews":[
		{
			"buffer":0,
			"byteLength":72912,
			"byteOffset":0,
			"target":34962
		},
		{
			"buffer":0,
			"byteLength":72912,
			"byteOffset":72912,
			"target":34962
		},
		{
			"buffer":0,
			"byteLength":48608,
			"byteOffset":145824,
			"target":34962
		},
		{
			"buffer":0,
			"byteLength":24096,
			"byteOffset":194432,
			"target":34963
		}
	],
	"samplers":[
		{
			"magFilter":9729,
			"minFilter":9987
		}
	],
	"buffers":[
		{
			"byteLength":218528,
			"uri":"Prop_Crate_Large.bin"
		}
	]
}
