{
	"asset":{
		"generator":"Khronos glTF Blender I/O v4.0.44",
		"version":"2.0"
	},
	"extensionsUsed":[
		"KHR_materials_specular",
		"KHR_materials_ior"
	],
	"scene":0,
	"scenes":[
		{
			"name":"Scene",
			"nodes":[
				0
			]
		}
	],
	"nodes":[
		{
			"mesh":0,
			"name":"Prop_SatelliteDish"
		}
	],
	"materials":[
		{
			"doubleSided":true,
			"extensions":{
				"KHR_materials_specular":{
					"specularFactor":0
				},
				"KHR_materials_ior":{
					"ior":1.4500000476837158
				}
			},
			"name":"MI_Trim_01",
			"normalTexture":{
				"index":0
			},
			"pbrMetallicRoughness":{
				"baseColorTexture":{
					"index":1
				},
				"metallicRoughnessTexture":{
					"index":2
				}
			}
		},
		{
			"doubleSided":true,
			"name":"MI_Trim_02",
			"normalTexture":{
				"index":3
			},
			"pbrMetallicRoughness":{
				"baseColorTexture":{
					"index":4
				},
				"metallicRoughnessTexture":{
					"index":5
				}
			}
		},
		{
			"doubleSided":true,
			"name":"MI_Trim_03_Dark",
			"normalTexture":{
				"index":6
			},
			"pbrMetallicRoughness":{
				"baseColorTexture":{
					"index":7
				},
				"metallicRoughnessTexture":{
					"index":8
				}
			}
		}
	],
	"meshes":[
		{
			"name":"Cube.072",
			"primitives":[
				{
					"attributes":{
						"POSITION":0,
						"NORMAL":1,
						"TEXCOORD_0":2
					},
					"indices":3,
					"material":0
				},
				{
					"attributes":{
						"POSITION":4,
						"NORMAL":5,
						"TEXCOORD_0":6
					},
					"indices":7,
					"material":1
				},
				{
					"attributes":{
						"POSITION":8,
						"NORMAL":9,
						"TEXCOORD_0":10
					},
					"indices":11,
					"material":2
				}
			]
		}
	],
	"textures":[
		{
			"sampler":0,
			"source":0
		},
		{
			"sampler":0,
			"source":1
		},
		{
			"sampler":0,
			"source":2
		},
		{
			"sampler":0,
			"source":3
		},
		{
			"sampler":0,
			"source":4
		},
		{
			"sampler":0,
			"source":5
		},
		{
			"sampler":0,
			"source":6
		},
		{
			"sampler":0,
			"source":7
		},
		{
			"sampler":0,
			"source":8
		}
	],
	"images":[
		{
			"mimeType":"image/png",
			"name":"T_Trim_01_Normal",
			"uri":"T_Trim_01_Normal.png"
		},
		{
			"mimeType":"image/png",
			"name":"T_Trim_01_BaseColor_Red",
			"uri":"T_Trim_01_BaseColor_Red.png"
		},
		{
			"mimeType":"image/png",
			"name":"T_Trim_01_ORM",
			"uri":"T_Trim_01_ORM.png"
		},
		{
			"mimeType":"image/png",
			"name":"T_Trim_02_Normal",
			"uri":"T_Trim_02_Normal.png"
		},
		{
			"mimeType":"image/png",
			"name":"T_Trim_02_BaseColor_Red",
			"uri":"T_Trim_02_BaseColor_Red.png"
		},
		{
			"mimeType":"image/png",
			"name":"T_Trim_02_ORM",
			"uri":"T_Trim_02_ORM.png"
		},
		{
			"mimeType":"image/png",
			"name":"T_Trim_03_Normal",
			"uri":"T_Trim_03_Normal.png"
		},
		{
			"mimeType":"image/png",
			"name":"T_Trim_03_Cables",
			"uri":"T_Trim_03_Cables.png"
		},
		{
			"mimeType":"image/png",
			"name":"T_Trim_03_ORM",
			"uri":"T_Trim_03_ORM.png"
		}
	],
	"accessors":[
		{
			"bufferView":0,
			"componentType":5126,
			"count":970,
			"max":[
				0.5779871940612793,
				5.419130325317383,
				1.4850159883499146
			],
			"min":[
				-0.5779872536659241,
				0.473010390996933,
				-1.2581332921981812
			],
			"type":"VEC3"
		},
		{
			"bufferView":1,
			"componentType":5126,
			"count":970,
			"type":"VEC3"
		},
		{
			"bufferView":2,
			"componentType":5126,
			"count":970,
			"type":"VEC2"
		},
		{
			"bufferView":3,
			"componentType":5123,
			"count":2760,
			"type":"SCALAR"
		},
		{
			"bufferView":4,
			"componentType":5126,
			"count":2089,
			"max":[
				0.92005854845047,
				5.761200904846191,
				1.4459447860717773
			],
			"min":[
				-0.92005854845047,
				-0.03366115316748619,
				-1.2942107915878296
			],
			"type":"VEC3"
		},
		{
			"bufferView":5,
			"componentType":5126,
			"count":2089,
			"type":"VEC3"
		},
		{
			"bufferView":6,
			"componentType":5126,
			"count":2089,
			"type":"VEC2"
		},
		{
			"bufferView":7,
			"componentType":5123,
			"count":6900,
			"type":"SCALAR"
		},
		{
			"bufferView":8,
			"componentType":5126,
			"count":75,
			"max":[
				0.1257448047399521,
				0.1907823085784912,
				0.5720906257629395
			],
			"min":[
				-0.1257447600364685,
				-0.013458249159157276,
				-0.5720905661582947
			],
			"type":"VEC3"
		},
		{
			"bufferView":9,
			"componentType":5126,
			"count":75,
			"type":"VEC3"
		},
		{
			"bufferView":10,
			"componentType":5126,
			"count":75,
			"type":"VEC2"
		},
		{
			"bufferView":11,
			"componentType":5123,
			"count":246,
			"type":"SCALAR"
		}
	],
	"bufferViews":[
		{
			"buffer":0,
			"byteLength":11640,
			"byteOffset":0,
			"target":34962
		},
		{
			"buffer":0,
			"byteLength":11640,
			"byteOffset":11640,
			"target":34962
		},
		{
			"buffer":0,
			"byteLength":7760,
			"byteOffset":23280,
			"target":34962
		},
		{
			"buffer":0,
			"byteLength":5520,
			"byteOffset":31040,
			"target":34963
		},
		{
			"buffer":0,
			"byteLength":25068,
			"byteOffset":36560,
			"target":34962
		},
		{
			"buffer":0,
			"byteLength":25068,
			"byteOffset":61628,
			"target":34962
		},
		{
			"buffer":0,
			"byteLength":16712,
			"byteOffset":86696,
			"target":34962
		},
		{
			"buffer":0,
			"byteLength":13800,
			"byteOffset":103408,
			"target":34963
		},
		{
			"buffer":0,
			"byteLength":900,
			"byteOffset":117208,
			"target":34962
		},
		{
			"buffer":0,
			"byteLength":900,
			"byteOffset":118108,
			"target":34962
		},
		{
			"buffer":0,
			"byteLength":600,
			"byteOffset":119008,
			"target":34962
		},
		{
			"buffer":0,
			"byteLength":492,
			"byteOffset":119608,
			"target":34963
		}
	],
	"samplers":[
		{
			"magFilter":9729,
			"minFilter":9987
		}
	],
	"buffers":[
		{
			"byteLength":120100,
			"uri":"Prop_SatelliteDish.bin"
		}
	]
}
