{
	"asset":{
		"generator":"Khronos glTF Blender I/O v4.0.44",
		"version":"2.0"
	},
	"scene":0,
	"scenes":[
		{
			"name":"Scene",
			"nodes":[
				0
			]
		}
	],
	"nodes":[
		{
			"mesh":0,
			"name":"Prop_Crate_Tarp_Large"
		}
	],
	"materials":[
		{
			"doubleSided":true,
			"name":"MI_Props_Crates",
			"normalTexture":{
				"index":0
			},
			"pbrMetallicRoughness":{
				"baseColorTexture":{
					"index":1
				},
				"metallicRoughnessTexture":{
					"index":2
				}
			}
		}
	],
	"meshes":[
		{
			"name":"Cube.005",
			"primitives":[
				{
					"attributes":{
						"POSITION":0,
						"NORMAL":1,
						"TEXCOORD_0":2
					},
					"indices":3,
					"material":0
				}
			]
		}
	],
	"textures":[
		{
			"sampler":0,
			"source":0
		},
		{
			"sampler":0,
			"source":1
		},
		{
			"sampler":0,
			"source":2
		}
	],
	"images":[
		{
			"mimeType":"image/png",
			"name":"T_Props_Crates_Normal",
			"uri":"T_Props_Crates_Normal.png"
		},
		{
			"mimeType":"image/png",
			"name":"T_Props_Crates_BaseColor",
			"uri":"T_Props_Crates_BaseColor.png"
		},
		{
			"mimeType":"image/png",
			"name":"T_Props_Crates_ORM",
			"uri":"T_Props_Crates_ORM.png"
		}
	],
	"accessors":[
		{
			"bufferView":0,
			"componentType":5126,
			"count":5088,
			"max":[
				1.6098124980926514,
				1.5629165172576904,
				0.858394980430603
			],
			"min":[
				-1.6098122596740723,
				-0.004653901793062687,
				-0.8583955764770508
			],
			"type":"VEC3"
		},
		{
			"bufferView":1,
			"componentType":5126,
			"count":5088,
			"type":"VEC3"
		},
		{
			"bufferView":2,
			"componentType":5126,
			"count":5088,
			"type":"VEC2"
		},
		{
			"bufferView":3,
			"componentType":5123,
			"count":13416,
			"type":"SCALAR"
		}
	],
	"bufferViews":[
		{
			"buffer":0,
			"byteLength":61056,
			"byteOffset":0,
			"target":34962
		},
		{
			"buffer":0,
			"byteLength":61056,
			"byteOffset":61056,
			"target":34962
		},
		{
			"buffer":0,
			"byteLength":40704,
			"byteOffset":122112,
			"target":34962
		},
		{
			"buffer":0,
			"byteLength":26832,
			"byteOffset":162816,
			"target":34963
		}
	],
	"samplers":[
		{
			"magFilter":9729,
			"minFilter":9987
		}
	],
	"buffers":[
		{
			"byteLength":189648,
			"uri":"Prop_Crate_Tarp_Large.bin"
		}
	]
}
