{
	"asset":{
		"generator":"Khronos glTF Blender I/O v4.0.44",
		"version":"2.0"
	},
	"scene":0,
	"scenes":[
		{
			"name":"Scene",
			"nodes":[
				0
			]
		}
	],
	"nodes":[
		{
			"mesh":0,
			"name":"Prop_Syringe"
		}
	],
	"materials":[
		{
			"doubleSided":true,
			"name":"MI_Props_Batch1",
			"normalTexture":{
				"index":0
			},
			"pbrMetallicRoughness":{
				"baseColorTexture":{
					"index":1
				},
				"metallicRoughnessTexture":{
					"index":2
				}
			}
		}
	],
	"meshes":[
		{
			"name":"Cylinder.073",
			"primitives":[
				{
					"attributes":{
						"POSITION":0,
						"NORMAL":1,
						"TEXCOORD_0":2
					},
					"indices":3,
					"material":0
				}
			]
		}
	],
	"textures":[
		{
			"sampler":0,
			"source":0
		},
		{
			"sampler":0,
			"source":1
		},
		{
			"sampler":0,
			"source":2
		}
	],
	"images":[
		{
			"mimeType":"image/png",
			"name":"T_Props_Batch1_Normal",
			"uri":"T_Props_Batch1_Normal.png"
		},
		{
			"mimeType":"image/png",
			"name":"T_Props_Batch1_BaseColor",
			"uri":"T_Props_Batch1_BaseColor.png"
		},
		{
			"mimeType":"image/png",
			"name":"T_Props_Batch1_ORM",
			"uri":"T_Props_Batch1_ORM.png"
		}
	],
	"accessors":[
		{
			"bufferView":0,
			"componentType":5126,
			"count":1370,
			"max":[
				0.05700826272368431,
				0.49266403913497925,
				0.05700835585594177
			],
			"min":[
				-0.05700840801000595,
				-0.1597888022661209,
				-0.05700830742716789
			],
			"type":"VEC3"
		},
		{
			"bufferView":1,
			"componentType":5126,
			"count":1370,
			"type":"VEC3"
		},
		{
			"bufferView":2,
			"componentType":5126,
			"count":1370,
			"type":"VEC2"
		},
		{
			"bufferView":3,
			"componentType":5123,
			"count":3354,
			"type":"SCALAR"
		}
	],
	"bufferViews":[
		{
			"buffer":0,
			"byteLength":16440,
			"byteOffset":0,
			"target":34962
		},
		{
			"buffer":0,
			"byteLength":16440,
			"byteOffset":16440,
			"target":34962
		},
		{
			"buffer":0,
			"byteLength":10960,
			"byteOffset":32880,
			"target":34962
		},
		{
			"buffer":0,
			"byteLength":6708,
			"byteOffset":43840,
			"target":34963
		}
	],
	"samplers":[
		{
			"magFilter":9729,
			"minFilter":9987
		}
	],
	"buffers":[
		{
			"byteLength":50548,
			"uri":"Prop_Syringe.bin"
		}
	]
}
