# Blender v3.6.0 OBJ File: 'AllModels.blend'
# www.blender.org
mtllib Prop_HealthPack_Tube.mtl
o Prop_HealthPack_Tube_Cylinder.186
v 0.000000 -0.099483 0.070262
v 0.000000 0.149399 0.070262
v -0.026888 -0.099483 0.064914
v -0.026888 0.149399 0.064914
v -0.049683 -0.099483 0.049683
v -0.049683 0.149399 0.049683
v -0.064914 -0.099483 0.026888
v -0.064914 0.149399 0.026888
v -0.070262 -0.099483 0.000000
v -0.070262 0.149399 0.000000
v -0.064914 -0.099483 -0.026888
v -0.064914 0.149399 -0.026888
v -0.049683 -0.099483 -0.049683
v -0.049683 0.149399 -0.049683
v -0.026888 -0.099483 -0.064914
v -0.026888 0.149399 -0.064914
v -0.000000 -0.099483 -0.070262
v -0.000000 0.149399 -0.070262
v 0.026888 -0.099483 -0.064914
v 0.026888 0.149399 -0.064914
v 0.049683 -0.099483 -0.049683
v 0.049683 0.149399 -0.049683
v 0.064914 -0.099483 -0.026888
v 0.064914 0.149399 -0.026888
v 0.070262 -0.099483 -0.000000
v 0.070262 0.149399 -0.000000
v 0.064914 -0.099483 0.026888
v 0.064914 0.149399 0.026888
v 0.049683 -0.099483 0.049683
v 0.049683 0.149399 0.049683
v 0.026888 -0.099483 0.064914
v 0.026888 0.149399 0.064914
v 0.000000 -0.090626 0.074770
v -0.028613 -0.090626 0.069078
v -0.052870 -0.090626 0.052870
v -0.069078 -0.090626 0.028613
v -0.074770 -0.090626 0.000000
v -0.069078 -0.090626 -0.028613
v -0.052870 -0.090626 -0.052870
v -0.028613 -0.090626 -0.069078
v -0.000000 -0.090626 -0.074770
v 0.028613 -0.090626 -0.069078
v 0.052870 -0.090626 -0.052870
v 0.069078 -0.090626 -0.028613
v 0.074770 -0.090626 -0.000000
v 0.069078 -0.090626 0.028613
v 0.052870 -0.090626 0.052870
v 0.028613 -0.090626 0.069078
v 0.000000 -0.138848 0.059530
v -0.022781 -0.138848 0.054998
v -0.042094 -0.138848 0.042094
v -0.054998 -0.138848 0.022781
v -0.059530 -0.138848 0.000000
v -0.054998 -0.138848 -0.022781
v -0.042094 -0.138848 -0.042094
v -0.022781 -0.138848 -0.054998
v -0.000000 -0.138848 -0.059530
v 0.022781 -0.138848 -0.054998
v 0.042094 -0.138848 -0.042094
v 0.054998 -0.138848 -0.022781
v 0.059530 -0.138848 -0.000000
v 0.054998 -0.138848 0.022781
v 0.042094 -0.138848 0.042094
v 0.022781 -0.138848 0.054998
v 0.000000 0.175722 0.074770
v -0.028613 0.175722 0.069078
v -0.052870 0.175722 0.052870
v -0.069078 0.175722 0.028613
v -0.074770 0.175722 0.000000
v -0.069078 0.175722 -0.028613
v -0.052870 0.175722 -0.052870
v -0.028613 0.175722 -0.069078
v -0.000000 0.175722 -0.074770
v 0.028613 0.175722 -0.069078
v 0.052870 0.175722 -0.052870
v 0.069078 0.175722 -0.028613
v 0.074770 0.175722 -0.000000
v 0.069078 0.175722 0.028613
v 0.052870 0.175722 0.052870
v 0.028613 0.175722 0.069078
v 0.000000 0.127499 0.074770
v -0.028613 0.127499 0.069078
v -0.052870 0.127499 0.052870
v -0.069078 0.127499 0.028613
v -0.074770 0.127499 0.000000
v -0.069078 0.127499 -0.028613
v -0.052870 0.127499 -0.052870
v -0.028613 0.127499 -0.069078
v -0.000000 0.127499 -0.074770
v 0.028613 0.127499 -0.069078
v 0.052870 0.127499 -0.052870
v 0.069078 0.127499 -0.028613
v 0.074770 0.127499 -0.000000
v 0.069078 0.127499 0.028613
v 0.052870 0.127499 0.052870
v 0.028613 0.127499 0.069078
v -0.028613 -0.125411 0.069078
v 0.000000 -0.125411 0.074770
v 0.028613 -0.125411 0.069078
v 0.028613 -0.125411 -0.069078
v -0.000000 -0.125411 -0.074770
v -0.052870 -0.125411 0.052870
v 0.052870 -0.125411 -0.052870
v -0.069078 -0.125411 0.028613
v 0.069078 -0.125411 -0.028613
v -0.074770 -0.125411 0.000000
v 0.074770 -0.125411 -0.000000
v -0.069078 -0.125411 -0.028613
v 0.069078 -0.125411 0.028613
v -0.052870 -0.125411 -0.052870
v 0.052870 -0.125411 0.052870
v -0.028613 -0.125411 -0.069078
v -0.065848 -0.108324 0.027275
v -0.065848 -0.098094 0.027275
v 0.050398 -0.108324 -0.050398
v 0.050398 -0.098094 -0.050398
v -0.050398 -0.108324 0.050398
v -0.050398 -0.098094 0.050398
v -0.000000 -0.098094 -0.071274
v -0.000000 -0.108324 -0.071274
v 0.027275 -0.108324 -0.065848
v 0.027275 -0.098094 -0.065848
v 0.027275 -0.098094 0.065848
v 0.027275 -0.108324 0.065848
v 0.000000 -0.098094 0.071274
v 0.000000 -0.108324 0.071274
v -0.027275 -0.108324 0.065848
v -0.027275 -0.098094 0.065848
v 0.000000 -0.109679 0.074770
v 0.000000 -0.096739 0.074770
v 0.028613 -0.109679 0.069078
v 0.028613 -0.096739 0.069078
v -0.000000 -0.109679 -0.074770
v -0.000000 -0.096739 -0.074770
v -0.028613 -0.096739 0.069078
v -0.028613 -0.109679 0.069078
v 0.028613 -0.096739 -0.069078
v 0.028613 -0.109679 -0.069078
v -0.052870 -0.096739 0.052870
v -0.052870 -0.109679 0.052870
v 0.052870 -0.096739 -0.052870
v 0.052870 -0.109679 -0.052870
v -0.069078 -0.096739 0.028613
v -0.069078 -0.109679 0.028613
v 0.069078 -0.096739 -0.028613
v 0.069078 -0.109679 -0.028613
v -0.074770 -0.096739 0.000000
v -0.074770 -0.109679 0.000000
v 0.074770 -0.096739 -0.000000
v 0.074770 -0.109679 -0.000000
v -0.069078 -0.096739 -0.028613
v -0.069078 -0.109679 -0.028613
v 0.069078 -0.096739 0.028613
v 0.069078 -0.109679 0.028613
v -0.052870 -0.096739 -0.052870
v -0.052870 -0.109679 -0.052870
v 0.052870 -0.096739 0.052870
v 0.052870 -0.109679 0.052870
v -0.028613 -0.096739 -0.069078
v -0.028613 -0.109679 -0.069078
v 0.065848 -0.098094 -0.027275
v 0.065848 -0.108324 -0.027275
v -0.071274 -0.098094 0.000000
v -0.071274 -0.108324 0.000000
v 0.071274 -0.098094 -0.000000
v 0.071274 -0.108324 -0.000000
v -0.065848 -0.098094 -0.027275
v -0.065848 -0.108324 -0.027275
v 0.065848 -0.098094 0.027275
v 0.065848 -0.108324 0.027275
v -0.050398 -0.098094 -0.050398
v -0.050398 -0.108324 -0.050398
v 0.050398 -0.098094 0.050398
v 0.050398 -0.108324 0.050398
v -0.027275 -0.098094 -0.065848
v -0.027275 -0.108324 -0.065848
vt 0.528753 0.318027
vt 0.528753 0.313760
vt 0.530386 0.309818
vt 0.533403 0.306801
vt 0.537345 0.305169
vt 0.541612 0.305169
vt 0.545554 0.306801
vt 0.548571 0.309818
vt 0.550204 0.313760
vt 0.550204 0.318027
vt 0.548571 0.321969
vt 0.545554 0.324986
vt 0.541612 0.326619
vt 0.537345 0.326619
vt 0.533403 0.324986
vt 0.530386 0.321969
vt 0.267726 0.591603
vt 0.269359 0.587661
vt 0.272376 0.584644
vt 0.276318 0.583012
vt 0.280585 0.583012
vt 0.284526 0.584644
vt 0.287544 0.587661
vt 0.289176 0.591603
vt 0.289176 0.595870
vt 0.287544 0.599812
vt 0.284526 0.602829
vt 0.280585 0.604462
vt 0.276318 0.604462
vt 0.272376 0.602829
vt 0.269359 0.599812
vt 0.267726 0.595870
vt 0.105461 0.149301
vt 0.103723 0.153496
vt 0.100512 0.156707
vt 0.096318 0.158444
vt 0.091777 0.158444
vt 0.087582 0.156707
vt 0.084372 0.153496
vt 0.082634 0.149301
vt 0.082634 0.144761
vt 0.084372 0.140566
vt 0.087582 0.137355
vt 0.091777 0.135618
vt 0.096318 0.135618
vt 0.100512 0.137355
vt 0.103723 0.140566
vt 0.105461 0.144761
vt 0.413947 0.011096
vt 0.413947 0.015636
vt 0.412210 0.019831
vt 0.408999 0.023042
vt 0.404804 0.024779
vt 0.400264 0.024779
vt 0.396069 0.023042
vt 0.392858 0.019831
vt 0.391121 0.015636
vt 0.391121 0.011096
vt 0.392858 0.006901
vt 0.396069 0.003691
vt 0.400264 0.001953
vt 0.404804 0.001953
vt 0.408999 0.003691
vt 0.412210 0.006901
vt 0.385472 0.011096
vt 0.385472 0.015636
vt 0.383734 0.019831
vt 0.380523 0.023042
vt 0.376329 0.024779
vt 0.371788 0.024779
vt 0.367593 0.023042
vt 0.364383 0.019831
vt 0.362645 0.015636
vt 0.362645 0.011096
vt 0.364383 0.006901
vt 0.367593 0.003691
vt 0.371788 0.001953
vt 0.376329 0.001953
vt 0.380523 0.003691
vt 0.383734 0.006901
vt 0.714612 0.876713
vt 0.675878 0.876713
vt 0.675878 0.872447
vt 0.714612 0.872447
vt 0.675878 0.868180
vt 0.714612 0.868180
vt 0.675878 0.863913
vt 0.714612 0.863913
vt 0.714612 0.932180
vt 0.675878 0.932180
vt 0.675878 0.927913
vt 0.714612 0.927913
vt 0.675878 0.923647
vt 0.714612 0.923647
vt 0.675878 0.919380
vt 0.714612 0.919380
vt 0.675878 0.915113
vt 0.714612 0.915113
vt 0.675878 0.910847
vt 0.714612 0.910847
vt 0.675878 0.906580
vt 0.714612 0.906580
vt 0.675878 0.902313
vt 0.714612 0.902313
vt 0.675878 0.898047
vt 0.714612 0.898047
vt 0.675878 0.893780
vt 0.714612 0.893780
vt 0.675878 0.889513
vt 0.714612 0.889513
vt 0.675878 0.885247
vt 0.714612 0.885247
vt 0.675878 0.880980
vt 0.714612 0.880980
vt 0.238440 0.012847
vt 0.237057 0.016187
vt 0.234501 0.018743
vt 0.231161 0.020127
vt 0.227546 0.020127
vt 0.224206 0.018743
vt 0.221650 0.016187
vt 0.220267 0.012847
vt 0.220267 0.009232
vt 0.221650 0.005893
vt 0.224206 0.003337
vt 0.227546 0.001953
vt 0.231161 0.001953
vt 0.234501 0.003337
vt 0.237057 0.005893
vt 0.238440 0.009232
vt 0.749474 0.520999
vt 0.746085 0.523687
vt 0.744356 0.521050
vt 0.747326 0.518679
vt 0.752376 0.517795
vt 0.749876 0.515855
vt 0.754754 0.489225
vt 0.756462 0.493195
vt 0.753457 0.494188
vt 0.751949 0.490693
vt 0.742276 0.525778
vt 0.741058 0.522899
vt 0.757503 0.497390
vt 0.754376 0.497882
vt 0.738065 0.527236
vt 0.737575 0.524061
vt 0.757849 0.501698
vt 0.754684 0.501675
vt 0.738203 0.475948
vt 0.742371 0.477530
vt 0.741079 0.480414
vt 0.737575 0.479158
vt 0.757491 0.506005
vt 0.754371 0.505469
vt 0.746155 0.479668
vt 0.744379 0.482281
vt 0.756438 0.510197
vt 0.753447 0.509161
vt 0.749532 0.482372
vt 0.747348 0.484661
vt 0.754718 0.514162
vt 0.751935 0.512654
vt 0.752423 0.485585
vt 0.749895 0.487489
vt 0.001953 0.171748
vt 0.001953 0.167207
vt 0.009458 0.167207
vt 0.009458 0.171748
vt 0.001953 0.176288
vt 0.009458 0.176288
vt 0.001953 0.208071
vt 0.001953 0.203531
vt 0.009458 0.203531
vt 0.009458 0.208071
vt 0.001953 0.162667
vt 0.009458 0.162667
vt 0.001953 0.198991
vt 0.009458 0.198991
vt 0.001953 0.158127
vt 0.009458 0.158127
vt 0.001953 0.194450
vt 0.009458 0.194450
vt 0.001953 0.230774
vt 0.001953 0.226233
vt 0.009458 0.226233
vt 0.009458 0.230774
vt 0.001953 0.189910
vt 0.009458 0.189910
vt 0.001953 0.221693
vt 0.009458 0.221693
vt 0.001953 0.185369
vt 0.009458 0.185369
vt 0.001953 0.217152
vt 0.009458 0.217152
vt 0.001953 0.180829
vt 0.009458 0.180829
vt 0.001953 0.212612
vt 0.009458 0.212612
vt 0.756914 0.488071
vt 0.758781 0.492408
vt 0.985316 0.273091
vt 0.985316 0.277632
vt 0.984365 0.277632
vt 0.984365 0.273091
vt 0.985316 0.268551
vt 0.984365 0.268551
vt 0.985316 0.300334
vt 0.985316 0.304874
vt 0.984365 0.304874
vt 0.984365 0.300334
vt 0.985316 0.264010
vt 0.984365 0.264010
vt 0.985316 0.295793
vt 0.984365 0.295793
vt 0.985316 0.259470
vt 0.984365 0.259470
vt 0.985316 0.291253
vt 0.984365 0.291253
vt 0.985316 0.254929
vt 0.984365 0.254929
vt 0.985316 0.286712
vt 0.984365 0.286712
vt 0.985316 0.323036
vt 0.985316 0.327576
vt 0.984365 0.327576
vt 0.984365 0.323036
vt 0.985316 0.282172
vt 0.984365 0.282172
vt 0.985316 0.318495
vt 0.984365 0.318495
vt 0.747453 0.525715
vt 0.743320 0.527995
vt 0.751154 0.522781
vt 0.985316 0.309415
vt 0.984365 0.309415
vt 0.754324 0.519280
vt 0.985316 0.313955
vt 0.984365 0.313955
vt 0.754368 0.484096
vt 0.759920 0.496989
vt 0.738945 0.529597
vt 0.760299 0.501695
vt 0.739151 0.473664
vt 0.743424 0.475347
vt 0.759908 0.506400
vt 0.747524 0.477645
vt 0.758759 0.510979
vt 0.751209 0.480589
vt 0.756881 0.515311
vt 0.993856 0.312683
vt 0.993856 0.308355
vt 0.995449 0.308355
vt 0.995449 0.312683
vt 0.196049 0.026427
vt 0.191943 0.024487
vt 0.192285 0.024014
vt 0.196198 0.025863
vt 0.196049 0.002296
vt 0.200576 0.001953
vt 0.200514 0.002533
vt 0.196198 0.002860
vt 0.208524 0.006023
vt 0.210893 0.009897
vt 0.210348 0.010105
vt 0.208090 0.006413
vt 0.167355 0.026770
vt 0.162827 0.026427
vt 0.162976 0.025863
vt 0.167292 0.026189
vt 0.177671 0.018826
vt 0.175303 0.022700
vt 0.174868 0.022310
vt 0.177126 0.018617
vt 0.211719 0.014361
vt 0.210893 0.018826
vt 0.210348 0.018617
vt 0.211135 0.014361
vt 0.158722 0.004235
vt 0.162827 0.002296
vt 0.162976 0.002860
vt 0.159063 0.004709
vt 0.177671 0.009897
vt 0.178497 0.014361
vt 0.177913 0.014361
vt 0.177126 0.010105
vt 0.208524 0.022700
vt 0.204927 0.025470
vt 0.204661 0.024950
vt 0.208090 0.022310
vt 0.188804 0.021207
vt 0.189292 0.020887
vt 0.171705 0.003253
vt 0.175303 0.006023
vt 0.174868 0.006413
vt 0.171439 0.003772
vt 0.155582 0.007515
vt 0.156070 0.007835
vt 0.187045 0.011701
vt 0.188804 0.007515
vt 0.189292 0.007835
vt 0.187615 0.011826
vt 0.155582 0.021207
vt 0.153823 0.017021
vt 0.154394 0.016897
vt 0.156070 0.020887
vt 0.191943 0.004235
vt 0.192285 0.004709
vt 0.204927 0.003253
vt 0.204661 0.003772
vt 0.993856 0.304027
vt 0.995449 0.304027
vt 0.993856 0.278058
vt 0.993856 0.273730
vt 0.995449 0.273730
vt 0.995449 0.278058
vt 0.993856 0.317011
vt 0.995449 0.317011
vt 0.993856 0.282386
vt 0.995449 0.282386
vt 0.993856 0.321339
vt 0.995449 0.321339
vt 0.993856 0.286714
vt 0.995449 0.286714
vt 0.993856 0.256418
vt 0.993856 0.252089
vt 0.995449 0.252089
vt 0.995449 0.256418
vt 0.993856 0.291043
vt 0.995449 0.291043
vt 0.993856 0.260746
vt 0.995449 0.260746
vt 0.993856 0.295371
vt 0.995449 0.295371
vt 0.993856 0.265074
vt 0.995449 0.265074
vt 0.993856 0.299699
vt 0.995449 0.299699
vt 0.993856 0.269402
vt 0.995449 0.269402
vt 0.158722 0.024487
vt 0.159063 0.024014
vt 0.167355 0.001953
vt 0.167292 0.002533
vt 0.153823 0.011701
vt 0.154394 0.011826
vt 0.200576 0.026770
vt 0.200514 0.026189
vt 0.187045 0.017021
vt 0.187615 0.016897
vt 0.171705 0.025470
vt 0.171439 0.024950
vn 0.0000 1.0000 0.0000
vn 0.0000 -1.0000 0.0000
vn 0.0000 0.0000 1.0000
vn -0.3827 0.0000 0.9239
vn -0.7071 0.0000 0.7071
vn -0.9239 0.0000 0.3827
vn -1.0000 0.0000 0.0000
vn -0.9239 -0.0000 -0.3827
vn -0.7071 -0.0000 -0.7071
vn -0.3827 -0.0000 -0.9239
vn -0.0000 -0.0000 -1.0000
vn 0.3827 -0.0000 -0.9239
vn 0.7071 -0.0000 -0.7071
vn 0.9239 -0.0000 -0.3827
vn 1.0000 -0.0000 -0.0000
vn 0.9239 0.0000 0.3827
vn 0.7071 0.0000 0.7071
vn 0.3827 0.0000 0.9239
vn 0.0000 -0.9204 0.3909
vn -0.1496 -0.9204 0.3612
vn -0.2764 -0.9204 0.2764
vn -0.3612 -0.9204 0.1496
vn -0.3909 -0.9204 0.0000
vn -0.3612 -0.9204 -0.1496
vn -0.2764 -0.9204 -0.2764
vn -0.1496 -0.9204 -0.3612
vn -0.0000 -0.9204 -0.3909
vn 0.1496 -0.9204 -0.3612
vn 0.2764 -0.9204 -0.2764
vn 0.3612 -0.9204 -0.1496
vn 0.3909 -0.9204 -0.0000
vn 0.3612 -0.9204 0.1496
vn 0.2764 -0.9204 0.2764
vn 0.1496 -0.9204 0.3612
vn 0.0000 -0.7501 0.6613
vn -0.2531 -0.7501 0.6110
vn 0.2531 -0.7501 0.6110
vn -0.0000 -0.7501 -0.6613
vn 0.2531 -0.7501 -0.6110
vn -0.4676 -0.7501 0.4676
vn 0.4676 -0.7501 -0.4676
vn -0.6110 -0.7501 0.2531
vn 0.6110 -0.7501 -0.2531
vn -0.6613 -0.7501 0.0000
vn 0.6613 -0.7501 -0.0000
vn -0.6110 -0.7501 -0.2531
vn 0.6110 -0.7501 0.2531
vn -0.4676 -0.7501 -0.4676
vn 0.4676 -0.7501 0.4676
vn -0.2531 -0.7501 -0.6110
vn 0.0000 -0.9324 0.3614
vn -0.1383 -0.9324 0.3339
vn -0.2555 -0.9324 -0.2555
vn -0.1383 -0.9324 -0.3339
vn 0.1383 -0.9324 -0.3339
vn 0.2555 -0.9324 -0.2555
vn -0.1383 0.9324 -0.3339
vn -0.2555 0.9324 -0.2555
vn 0.2555 0.9324 -0.2555
vn 0.1383 0.9324 -0.3339
vn 0.3339 -0.9324 -0.1383
vn 0.3614 -0.9324 -0.0000
vn -0.1383 0.9324 0.3339
vn 0.0000 0.9324 0.3614
vn 0.3614 0.9324 0.0000
vn 0.3339 0.9324 -0.1383
vn 0.3339 -0.9324 0.1383
vn 0.2555 -0.9324 0.2555
vn -0.2555 -0.9324 0.2555
vn 0.2555 0.9324 0.2555
vn 0.3339 0.9324 0.1383
vn -0.2555 0.9324 0.2555
vn -0.3339 -0.9324 0.1383
vn -0.3614 -0.9324 0.0000
vn -0.3614 0.9324 -0.0000
vn -0.3339 0.9324 0.1383
vn -0.3339 -0.9324 -0.1383
vn -0.0000 -0.9324 -0.3614
vn -0.3339 0.9324 -0.1383
vn 0.1383 0.9324 0.3339
vn 0.1383 -0.9324 0.3339
vn -0.0000 0.9324 -0.3614
usemtl MI_Props_Batch2
s off
f 4/1/1 2/2/1 32/3/1 30/4/1 28/5/1 26/6/1 24/7/1 22/8/1 20/9/1 18/10/1 16/11/1 14/12/1 12/13/1 10/14/1 8/15/1 6/16/1
f 1/17/2 3/18/2 5/19/2 7/20/2 9/21/2 11/22/2 13/23/2 15/24/2 17/25/2 19/26/2 21/27/2 23/28/2 25/29/2 27/30/2 29/31/2 31/32/2
f 33/33/1 48/34/1 47/35/1 46/36/1 45/37/1 44/38/1 43/39/1 42/40/1 41/41/1 40/42/1 39/43/1 38/44/1 37/45/1 36/46/1 35/47/1 34/48/1
f 65/49/1 80/50/1 79/51/1 78/52/1 77/53/1 76/54/1 75/55/1 74/56/1 73/57/1 72/58/1 71/59/1 70/60/1 69/61/1 68/62/1 67/63/1 66/64/1
f 81/65/2 82/66/2 83/67/2 84/68/2 85/69/2 86/70/2 87/71/2 88/72/2 89/73/2 90/74/2 91/75/2 92/76/2 93/77/2 94/78/2 95/79/2 96/80/2
s 1
f 1/81/3 2/82/3 4/83/4 3/84/4
f 3/84/4 4/83/4 6/85/5 5/86/5
f 5/86/5 6/85/5 8/87/6 7/88/6
f 7/89/6 8/90/6 10/91/7 9/92/7
f 9/92/7 10/91/7 12/93/8 11/94/8
f 11/94/8 12/93/8 14/95/9 13/96/9
f 13/96/9 14/95/9 16/97/10 15/98/10
f 15/98/10 16/97/10 18/99/11 17/100/11
f 17/100/11 18/99/11 20/101/12 19/102/12
f 19/102/12 20/101/12 22/103/13 21/104/13
f 21/104/13 22/103/13 24/105/14 23/106/14
f 23/106/14 24/105/14 26/107/15 25/108/15
f 25/108/15 26/107/15 28/109/16 27/110/16
f 27/110/16 28/109/16 30/111/17 29/112/17
f 29/112/17 30/111/17 32/113/18 31/114/18
f 31/114/18 32/113/18 2/82/3 1/81/3
f 49/115/19 50/116/20 51/117/21 52/118/22 53/119/23 54/120/24 55/121/25 56/122/26 57/123/27 58/124/28 59/125/29 60/126/30 61/127/31 62/128/32 63/129/33 64/130/34
f 98/131/35 97/132/36 50/133/20 49/134/19
f 99/135/37 98/131/35 49/134/19 64/136/34
f 101/137/38 100/138/39 58/139/28 57/140/27
f 97/132/36 102/141/40 51/142/21 50/133/20
f 100/138/39 103/143/41 59/144/29 58/139/28
f 102/141/40 104/145/42 52/146/22 51/142/21
f 103/143/41 105/147/43 60/148/30 59/144/29
f 104/149/42 106/150/44 53/151/23 52/152/22
f 105/147/43 107/153/45 61/154/31 60/148/30
f 106/150/44 108/155/46 54/156/24 53/151/23
f 107/153/45 109/157/47 62/158/32 61/154/31
f 108/155/46 110/159/48 55/160/25 54/156/24
f 109/157/47 111/161/49 63/162/33 62/158/32
f 110/159/48 112/163/50 56/164/26 55/160/25
f 111/161/49 99/135/37 64/136/34 63/162/33
f 112/163/50 101/137/38 57/140/27 56/164/26
f 65/165/3 66/166/4 82/167/4 81/168/3
f 80/169/18 65/165/3 81/168/3 96/170/18
f 73/171/11 74/172/12 90/173/12 89/174/11
f 66/166/4 67/175/5 83/176/5 82/167/4
f 74/172/12 75/177/13 91/178/13 90/173/12
f 67/175/5 68/179/6 84/180/6 83/176/5
f 75/177/13 76/181/14 92/182/14 91/178/13
f 68/183/6 69/184/7 85/185/7 84/186/6
f 76/181/14 77/187/15 93/188/15 92/182/14
f 69/184/7 70/189/8 86/190/8 85/185/7
f 77/187/15 78/191/16 94/192/16 93/188/15
f 70/189/8 71/193/9 87/194/9 86/190/8
f 78/191/16 79/195/17 95/196/17 94/192/16
f 71/193/9 72/197/10 88/198/10 87/194/9
f 79/195/17 80/169/18 96/170/18 95/196/17
f 72/197/10 73/171/11 89/174/11 88/198/10
f 133/199/11 138/200/12 100/138/12 101/137/11
f 40/201/10 41/202/11 134/203/11 159/204/10
f 39/205/9 40/201/10 159/204/10 155/206/9
f 46/207/16 47/208/17 157/209/17 153/210/16
f 38/211/8 39/205/9 155/206/9 151/212/8
f 45/213/15 46/207/16 153/210/16 149/214/15
f 37/215/7 38/211/8 151/212/8 147/216/7
f 44/217/14 45/213/15 149/214/15 145/218/14
f 36/219/6 37/215/7 147/216/7 143/220/6
f 43/221/13 44/217/14 145/218/14 141/222/13
f 35/223/5 36/224/6 143/225/6 139/226/5
f 42/227/12 43/221/13 141/222/13 137/228/12
f 34/229/4 35/223/5 139/226/5 135/230/4
f 136/231/4 140/232/5 102/141/5 97/132/4
f 129/233/3 136/231/4 97/132/4 98/131/3
f 47/208/17 48/234/18 132/235/18 157/209/17
f 131/236/18 129/233/3 98/131/3 99/135/18
f 33/237/3 34/229/4 135/230/4 130/238/3
f 160/239/10 133/199/11 101/137/11 112/163/10
f 138/200/12 142/240/13 103/143/13 100/138/12
f 140/232/5 144/241/6 104/145/6 102/141/5
f 142/240/13 146/242/14 105/147/14 103/143/13
f 144/243/6 148/244/7 106/150/7 104/149/6
f 146/242/14 150/245/15 107/153/15 105/147/14
f 148/244/7 152/246/8 108/155/8 106/150/7
f 150/245/15 154/247/16 109/157/16 107/153/15
f 152/246/8 156/248/9 110/159/9 108/155/8
f 154/247/16 158/249/17 111/161/17 109/157/16
f 156/248/9 160/239/10 112/163/10 110/159/9
f 127/250/4 126/251/3 125/252/3 128/253/4
f 158/249/17 131/236/18 99/135/18 111/161/17
f 41/202/11 42/227/12 137/228/12 134/203/11
f 130/254/51 135/255/52 128/256/52 125/257/51
f 155/258/53 159/259/54 175/260/54 171/261/53
f 137/262/55 141/263/56 116/264/56 122/265/55
f 160/266/57 156/267/58 172/268/58 176/269/57
f 142/270/59 138/271/60 121/272/60 115/273/59
f 145/274/61 149/275/62 165/276/62 161/277/61
f 136/278/63 129/279/64 126/280/64 127/281/63
f 150/282/65 146/283/66 162/284/66 166/285/65
f 153/286/67 157/287/68 173/288/68 169/289/67
f 135/255/52 139/290/69 118/291/69 128/256/52
f 158/292/70 154/293/71 170/294/71 174/295/70
f 140/296/72 136/278/63 127/281/63 117/297/72
f 143/298/73 147/299/74 163/300/74 114/301/73
f 148/302/75 144/303/76 113/304/76 164/305/75
f 151/306/77 155/258/53 171/261/53 167/307/77
f 134/308/78 137/262/55 122/265/55 119/309/78
f 48/234/18 33/237/3 130/238/3 132/235/18
f 126/251/3 124/310/18 123/311/18 125/252/3
f 121/312/12 120/313/11 119/314/11 122/315/12
f 117/316/5 127/250/4 128/253/4 118/317/5
f 115/318/13 121/312/12 122/315/12 116/319/13
f 113/320/6 117/316/5 118/317/5 114/321/6
f 162/322/14 115/318/13 116/319/13 161/323/14
f 164/324/7 113/325/6 114/326/6 163/327/7
f 166/328/15 162/322/14 161/323/14 165/329/15
f 168/330/8 164/324/7 163/327/7 167/331/8
f 170/332/16 166/328/15 165/329/15 169/333/16
f 172/334/9 168/330/8 167/331/8 171/335/9
f 174/336/17 170/332/16 169/333/16 173/337/17
f 176/338/10 172/334/9 171/335/9 175/339/10
f 124/310/18 174/336/17 173/337/17 123/311/18
f 120/313/11 176/338/10 175/339/10 119/314/11
f 152/340/79 148/302/75 164/305/75 168/341/79
f 131/342/80 158/292/70 174/295/70 124/343/80
f 129/279/64 131/342/80 124/343/80 126/280/64
f 147/299/74 151/306/77 167/307/77 163/300/74
f 144/344/76 140/296/72 117/297/72 113/345/76
f 157/287/68 132/346/81 123/347/81 173/288/68
f 139/290/69 143/348/73 114/349/73 118/291/69
f 133/350/82 160/266/57 176/269/57 120/351/82
f 132/346/81 130/254/51 125/257/51 123/347/81
f 154/293/71 150/282/65 166/285/65 170/294/71
f 159/259/54 134/308/78 119/309/78 175/260/54
f 149/275/62 153/286/67 169/289/67 165/276/62
f 146/283/66 142/270/59 115/273/59 162/284/66
f 138/271/60 133/350/82 120/351/82 121/272/60
f 141/263/56 145/274/61 161/277/61 116/264/56
f 156/267/58 152/340/79 168/341/79 172/268/58
